# xmcd
#
# Track frame offsets:
# 150
# 11602
# 28445
# 43954
# 52890
# 66992
# 107374
# 125029
# 143431
# 156382
# 171563
# 188290
#
# Disc length: 2833 seconds
#
#
# Revision: 3
# Processed by: cddbd v1.5.2PL0 Copyright (c) Steve Scherf et al.
# Submitted via: HACP 1.20
#
DISCID=a60b0f0c
DTITLE=Ella Fitzgerald - Ella In Hollywood
DYEAR=1961
DGENRE=Jazz
TTITLE0=This Could Be The Start Of Something Big
TTITLE1=I've Got The World On A String
TTITLE2=You're Driving Me Crazy
TTITLE3=Just In Time
TTITLE4=It Might As Well Be Spring
TTITLE5=Take The 'A' Train
TTITLE6=Stairway To The Stars
TTITLE7=Mr. Paganini
TTITLE8=Satin Doll
TTITLE9=Blue Moon
TTITLE10=Baby, Won't You Please Come Home
TTITLE11=Air Mail Special
EXTD=YEAR: 1961 Verve 0602517967007
EXTT0=
EXTT1=
EXTT2=
EXTT3=
EXTT4=
EXTT5=
EXTT6=
EXTT7=
EXTT8=
EXTT9=
EXTT10=
EXTT11=
PLAYORDER=
